<svg xmlns="http://www.w3.org/2000/svg" viewBox="0 0 400 600" role="img" aria-labelledby="t d">
  <title id="t">Rapunzel</title>
  <desc id="d">Cover illustration: stone tower with long golden braid.</desc>
  <defs>
    <linearGradient id="bg" x1="0" y1="0" x2="0" y2="1">
      <stop offset="0" stop-color="#3d5a3d"/>
      <stop offset="1" stop-color="#1a2d1a"/>
    </linearGradient>
  </defs>
  <rect width="400" height="600" fill="url(#bg)"/>
  <rect x="16" y="16" width="368" height="568" fill="none" stroke="#d4af37" stroke-width="2"/>
  <g transform="translate(200 500)">
    <rect x="-35" y="-280" width="70" height="280" fill="#7a7266" stroke="#3a3530" stroke-width="1.5"/>
    <g stroke="#3a3530" stroke-width="0.8" fill="none">
      <line x1="-35" y1="-240" x2="35" y2="-240"/>
      <line x1="-35" y1="-200" x2="35" y2="-200"/>
      <line x1="-35" y1="-160" x2="35" y2="-160"/>
      <line x1="-35" y1="-120" x2="35" y2="-120"/>
      <line x1="-35" y1="-80" x2="35" y2="-80"/>
      <line x1="-35" y1="-40" x2="35" y2="-40"/>
    </g>
    <polygon points="-45,-280 45,-280 35,-300 -35,-300" fill="#8b0000" stroke="#3a3530" stroke-width="1.5"/>
    <rect x="-8" y="-260" width="16" height="24" fill="#f4e4b2" stroke="#3a3530" stroke-width="1"/>
    <path d="M 0 -236 q -15 20 -15 60 q 0 50 15 130 q 5 30 10 60" fill="none" stroke="#f4e4b2" stroke-width="6" stroke-linecap="round" opacity="0.95"/>
    <path d="M 0 -236 q -18 25 -20 65 q -3 60 12 140" fill="none" stroke="#e8d49c" stroke-width="3" stroke-linecap="round" opacity="0.9"/>
  </g>
  <text x="200" y="90" text-anchor="middle" font-family="Georgia, serif" font-size="42" fill="#f4e4b2" font-style="italic">Rapunzel</text>
  <text x="200" y="130" text-anchor="middle" font-family="Georgia, serif" font-size="14" fill="#b8a66b" letter-spacing="4">KHM 12</text>
  <text x="200" y="560" text-anchor="middle" font-family="Georgia, serif" font-size="13" fill="#b8a66b">Brüder Grimm · 1812</text>
</svg>
