<svg xmlns="http://www.w3.org/2000/svg" viewBox="0 0 400 600" role="img" aria-labelledby="t d">
  <title id="t">Rotkäppchen</title>
  <desc id="d">Cover illustration: red hood in a dark forest with a wolf silhouette.</desc>
  <defs>
    <linearGradient id="bg" x1="0" y1="0" x2="0" y2="1">
      <stop offset="0" stop-color="#2a1a1a"/>
      <stop offset="1" stop-color="#100808"/>
    </linearGradient>
  </defs>
  <rect width="400" height="600" fill="url(#bg)"/>
  <rect x="16" y="16" width="368" height="568" fill="none" stroke="#d4af37" stroke-width="2"/>
  <g fill="#0d0505" stroke="#1a0a0a" stroke-width="1">
    <polygon points="40,500 80,380 120,500"/>
    <polygon points="100,500 140,360 180,500"/>
    <polygon points="220,500 260,370 300,500"/>
    <polygon points="280,500 320,350 360,500"/>
  </g>
  <g transform="translate(130 430)">
    <path d="M -40 0 Q -50 -40 -30 -70 Q -10 -95 20 -90 Q 45 -80 40 -40 L 45 0 Z" fill="#a01820" stroke="#5a0a10" stroke-width="1.5"/>
    <path d="M -30 -70 Q -5 -100 20 -95" fill="none" stroke="#5a0a10" stroke-width="2"/>
    <circle cx="0" cy="-55" r="12" fill="#f0d4b0"/>
  </g>
  <g transform="translate(290 440)" fill="#1a0808" stroke="#000" stroke-width="1">
    <path d="M -30 0 Q -35 -20 -25 -30 L -10 -35 L 0 -45 L 10 -35 L 25 -30 Q 35 -20 30 0 Z"/>
    <circle cx="-8" cy="-28" r="1.5" fill="#ffff00"/>
    <circle cx="8" cy="-28" r="1.5" fill="#ffff00"/>
  </g>
  <text x="200" y="110" text-anchor="middle" font-family="Georgia, serif" font-size="38" fill="#e8d4a0" font-style="italic">Rotkäppchen</text>
  <text x="200" y="150" text-anchor="middle" font-family="Georgia, serif" font-size="14" fill="#b08050" letter-spacing="4">KHM 26</text>
  <text x="200" y="560" text-anchor="middle" font-family="Georgia, serif" font-size="13" fill="#b08050">Brüder Grimm · 1812</text>
</svg>
