<svg xmlns="http://www.w3.org/2000/svg" viewBox="0 0 600 360" role="img" aria-labelledby="t d">
  <title id="t">Es war einmal</title>
  <desc id="d">Opening illustration: castle on hills at dawn framed by a golden arch.</desc>
  <defs>
    <linearGradient id="sky" x1="0" y1="0" x2="0" y2="1">
      <stop offset="0" stop-color="#f4c77a"/>
      <stop offset="0.5" stop-color="#e89a6e"/>
      <stop offset="1" stop-color="#9a5a7d"/>
    </linearGradient>
    <linearGradient id="hill1" x1="0" y1="0" x2="0" y2="1">
      <stop offset="0" stop-color="#4a6b5f"/>
      <stop offset="1" stop-color="#2b3f38"/>
    </linearGradient>
    <linearGradient id="hill2" x1="0" y1="0" x2="0" y2="1">
      <stop offset="0" stop-color="#6b8575"/>
      <stop offset="1" stop-color="#3d5248"/>
    </linearGradient>
  </defs>
  <rect width="600" height="360" fill="#f8efd9"/>
  <rect x="30" y="30" width="540" height="300" fill="url(#sky)"/>
  <circle cx="300" cy="180" r="52" fill="#fde9b7" opacity="0.85"/>
  <g fill="#f4e4b2" opacity="0.9">
    <circle cx="110" cy="85" r="1.2"/>
    <circle cx="170" cy="60" r="1"/>
    <circle cx="480" cy="75" r="1.4"/>
    <circle cx="430" cy="55" r="1"/>
    <circle cx="520" cy="110" r="1.1"/>
  </g>
  <g fill="url(#hill2)">
    <path d="M 30 260 Q 150 200 280 240 Q 410 270 570 220 L 570 330 L 30 330 Z"/>
  </g>
  <g fill="url(#hill1)">
    <path d="M 30 290 Q 180 240 320 280 Q 450 305 570 260 L 570 330 L 30 330 Z"/>
  </g>
  <g transform="translate(270 200)" fill="#2b2f3a" stroke="#0f1220" stroke-width="1">
    <rect x="0" y="20" width="60" height="50"/>
    <rect x="-10" y="10" width="20" height="60"/>
    <rect x="50" y="10" width="20" height="60"/>
    <polygon points="-10,10 0,-5 10,10"/>
    <polygon points="50,10 60,-5 70,10"/>
    <polygon points="0,20 30,-5 60,20"/>
    <rect x="25" y="35" width="10" height="20" fill="#f4c77a"/>
    <rect x="-6" y="30" width="6" height="8" fill="#f4c77a"/>
    <rect x="56" y="30" width="6" height="8" fill="#f4c77a"/>
    <line x1="5" y1="-8" x2="5" y2="-18" stroke="#0f1220"/>
    <polygon points="5,-18 14,-15 5,-12" fill="#c94a4a" stroke="none"/>
    <line x1="65" y1="-8" x2="65" y2="-18" stroke="#0f1220"/>
    <polygon points="65,-18 74,-15 65,-12" fill="#c94a4a" stroke="none"/>
  </g>
  <rect x="30" y="30" width="540" height="300" fill="none" stroke="#8b6914" stroke-width="2"/>
  <rect x="36" y="36" width="528" height="288" fill="none" stroke="#d4af37" stroke-width="0.7"/>
  <g fill="#8b6914">
    <circle cx="30" cy="30" r="4"/>
    <circle cx="570" cy="30" r="4"/>
    <circle cx="30" cy="330" r="4"/>
    <circle cx="570" cy="330" r="4"/>
  </g>
  <g transform="translate(300 48)" fill="#5b3a1a">
    <path d="M -50 0 q 25 -16 50 0 q 25 16 50 0" fill="none" stroke="#5b3a1a" stroke-width="1.2"/>
    <circle cx="0" cy="0" r="2.5"/>
    <circle cx="-25" cy="-2" r="1.5"/>
    <circle cx="25" cy="-2" r="1.5"/>
  </g>
  <text x="300" y="320" text-anchor="middle" font-family="Georgia, serif" font-size="16" font-style="italic" fill="#5b3a1a">Es war einmal ...</text>
</svg>
