<svg xmlns="http://www.w3.org/2000/svg" viewBox="0 0 600 360" role="img" aria-labelledby="t d">
  <title id="t">Tiergeschichten</title>
  <desc id="d">Opening illustration: forest clearing with silhouetted animals gathered around a lantern.</desc>
  <defs>
    <linearGradient id="tsky" x1="0" y1="0" x2="0" y2="1">
      <stop offset="0" stop-color="#ffd79a"/>
      <stop offset="0.6" stop-color="#d98a55"/>
      <stop offset="1" stop-color="#5c3b4a"/>
    </linearGradient>
    <radialGradient id="tglow" cx="0.5" cy="0.6" r="0.5">
      <stop offset="0" stop-color="#fff3c2" stop-opacity="0.9"/>
      <stop offset="1" stop-color="#fff3c2" stop-opacity="0"/>
    </radialGradient>
  </defs>
  <rect width="600" height="360" fill="#f8efd9"/>
  <rect x="30" y="30" width="540" height="300" fill="url(#tsky)"/>
  <ellipse cx="300" cy="240" rx="240" ry="90" fill="url(#tglow)"/>
  <circle cx="300" cy="170" r="38" fill="#fde9b7" opacity="0.6"/>
  <g fill="#2b2f3a">
    <path d="M 30 260 q 40 -20 90 -10 l 0 80 l -90 0 z"/>
    <path d="M 80 230 l 0 20 l -10 0 z" opacity="0.8"/>
    <path d="M 560 250 q -40 -20 -90 -10 l 0 90 l 90 0 z"/>
    <path d="M 510 220 l 0 24 l -10 0 z" opacity="0.8"/>
  </g>
  <g fill="#2b2f3a">
    <path d="M 80 260 l -6 -12 l -6 12 l -6 -14 l -6 14 l -6 -10 l -6 10 l 0 8 l 36 0 z" opacity="0.9"/>
    <path d="M 560 265 l -6 -12 l -6 12 l -6 -14 l -6 14 l -6 -10 l -6 10 l 0 8 l 36 0 z" opacity="0.9"/>
  </g>
  <g transform="translate(300 255)" fill="#1a1a1a">
    <ellipse cx="0" cy="10" rx="16" ry="4" opacity="0.5"/>
    <path d="M -10 8 l 0 -8 q 0 -4 4 -5 q 2 -1 3 2 l 1 3 q 2 -3 5 -3 q 3 0 4 3 l 1 3 q 1 -3 4 -3 q 4 0 4 5 l 0 8 z"/>
    <circle cx="-6" cy="-6" r="3"/>
    <path d="M -8 -10 q -2 -4 1 -6 q 3 -1 4 3 z"/>
    <path d="M -4 -10 q 1 -4 4 -4 q 2 1 1 4 z"/>
  </g>
  <g transform="translate(220 270)" fill="#1a1a1a">
    <ellipse cx="0" cy="6" rx="18" ry="3" opacity="0.4"/>
    <path d="M -14 4 q -2 -10 4 -12 q 4 -1 6 2 q 2 -8 10 -8 q 8 0 10 8 q 2 -3 6 -2 q 6 2 4 12 z"/>
    <circle cx="-10" cy="-4" r="2"/>
    <circle cx="10" cy="-4" r="2"/>
    <path d="M -12 -9 l 2 -5 l 3 4 z"/>
    <path d="M 12 -9 l -2 -5 l -3 4 z"/>
  </g>
  <g transform="translate(380 265)" fill="#1a1a1a">
    <ellipse cx="0" cy="10" rx="14" ry="3" opacity="0.4"/>
    <path d="M -12 8 l 0 -12 q 0 -5 5 -5 l 14 0 q 5 0 5 5 l 0 12 z"/>
    <path d="M -10 -4 l -2 -6 l 4 0 z"/>
    <path d="M 10 -4 l 2 -6 l -4 0 z"/>
    <path d="M 8 6 q 6 -2 8 4 q -4 2 -8 -4" opacity="0.8"/>
  </g>
  <g transform="translate(470 200)">
    <circle cx="0" cy="0" r="10" fill="#f4c77a" stroke="#8b6914" stroke-width="1.2"/>
    <circle cx="0" cy="0" r="6" fill="#fff3c2" opacity="0.8"/>
    <rect x="-2" y="-20" width="4" height="12" fill="#5b3a1a"/>
    <path d="M -10 10 q 10 12 20 0" fill="#5b3a1a"/>
  </g>
  <g fill="#f4e4b2" opacity="0.8">
    <circle cx="100" cy="70" r="1.2"/>
    <circle cx="170" cy="50" r="1"/>
    <circle cx="460" cy="60" r="1.3"/>
    <circle cx="520" cy="50" r="1"/>
  </g>
  <rect x="30" y="30" width="540" height="300" fill="none" stroke="#8b6914" stroke-width="2"/>
  <rect x="36" y="36" width="528" height="288" fill="none" stroke="#d4af37" stroke-width="0.7"/>
  <g fill="#8b6914">
    <circle cx="30" cy="30" r="4"/>
    <circle cx="570" cy="30" r="4"/>
    <circle cx="30" cy="330" r="4"/>
    <circle cx="570" cy="330" r="4"/>
  </g>
  <text x="300" y="320" text-anchor="middle" font-family="Georgia, serif" font-size="16" font-style="italic" fill="#5b3a1a">Von Tieren und Menschen ...</text>
</svg>
