<svg xmlns="http://www.w3.org/2000/svg" viewBox="0 0 400 240" role="img" aria-label="Aschenputtel — Illustration">
  <defs>
    <linearGradient id="asch-sky" x1="0" y1="0" x2="0" y2="1">
      <stop offset="0%" stop-color="#1e293b"/>
      <stop offset="100%" stop-color="#7c2d12"/>
    </linearGradient>
    <linearGradient id="asch-slipper" x1="0" y1="0" x2="1" y2="1">
      <stop offset="0%" stop-color="#fef3c7"/>
      <stop offset="100%" stop-color="#fbbf24"/>
    </linearGradient>
  </defs>
  <rect width="400" height="240" fill="url(#asch-sky)"/>
  <g fill="#fde68a" opacity="0.85">
    <circle cx="60" cy="40" r="1.5"/>
    <circle cx="120" cy="70" r="1"/>
    <circle cx="180" cy="30" r="1.8"/>
    <circle cx="260" cy="60" r="1.2"/>
    <circle cx="330" cy="35" r="1.6"/>
    <circle cx="350" cy="90" r="1"/>
    <circle cx="40" cy="110" r="1.2"/>
    <circle cx="220" cy="100" r="1.4"/>
  </g>
  <g transform="translate(90 175)">
    <ellipse cx="110" cy="12" rx="90" ry="9" fill="#78350f" opacity="0.55"/>
    <path d="M20 5 Q45 -40 130 -35 Q190 -32 205 -5 Q205 15 180 18 L50 18 Q20 18 20 5 Z"
          fill="url(#asch-slipper)" stroke="#b45309" stroke-width="2"/>
    <path d="M185 -18 Q200 -30 200 -5" fill="none" stroke="#b45309" stroke-width="2"/>
    <circle cx="110" cy="-10" r="3" fill="#fff7ed"/>
    <circle cx="135" cy="-16" r="2" fill="#fff7ed"/>
    <circle cx="80" cy="-14" r="2" fill="#fff7ed"/>
  </g>
</svg>
