<svg xmlns="http://www.w3.org/2000/svg" viewBox="0 0 600 360" role="img" aria-labelledby="t d">
  <title id="t">Ende</title>
  <desc id="d">Ending illustration: open storybook with key, heart and rose on a starry background.</desc>
  <defs>
    <linearGradient id="kEbg" x1="0" y1="0" x2="0" y2="1">
      <stop offset="0" stop-color="#211a3a"/>
      <stop offset="1" stop-color="#0b0a1a"/>
    </linearGradient>
    <radialGradient id="kGlow" cx="0.5" cy="0.5" r="0.5">
      <stop offset="0" stop-color="#f4e4b2" stop-opacity="0.55"/>
      <stop offset="1" stop-color="#f4e4b2" stop-opacity="0"/>
    </radialGradient>
  </defs>
  <rect width="600" height="360" fill="url(#kEbg)"/>
  <ellipse cx="300" cy="220" rx="250" ry="90" fill="url(#kGlow)"/>
  <g fill="#f4e4b2" opacity="0.9">
    <circle cx="70" cy="55" r="1.3"/>
    <circle cx="140" cy="40" r="1"/>
    <circle cx="220" cy="70" r="1.4"/>
    <circle cx="360" cy="50" r="1.1"/>
    <circle cx="450" cy="65" r="1.4"/>
    <circle cx="520" cy="40" r="1"/>
    <circle cx="540" cy="90" r="1.2"/>
    <circle cx="50" cy="110" r="1"/>
    <circle cx="560" cy="150" r="1.3"/>
    <circle cx="30" cy="180" r="1"/>
    <circle cx="100" cy="200" r="1.1"/>
    <circle cx="500" cy="210" r="1.3"/>
  </g>
  <g transform="translate(300 225)">
    <path d="M -130 0 q -6 -14 -12 -12 q -4 2 0 8 q -36 -2 -48 22 q -4 12 8 10 q 36 -6 52 -28 z"
          fill="#e8dcb9" stroke="#8b6914" stroke-width="1"/>
    <path d="M 130 0 q 6 -14 12 -12 q 4 2 0 8 q 36 -2 48 22 q 4 12 -8 10 q -36 -6 -52 -28 z"
          fill="#e8dcb9" stroke="#8b6914" stroke-width="1"/>
    <path d="M -130 -10 q 0 -22 22 -28 q 44 -14 108 -14 q 64 0 108 14 q 22 6 22 28 l 0 24 q 0 -20 -22 -26 q -44 -12 -108 -12 q -64 0 -108 12 q -22 6 -22 26 z"
          fill="#f4e4b2" stroke="#8b6914" stroke-width="1.2"/>
    <line x1="0" y1="-52" x2="0" y2="12" stroke="#8b6914" stroke-width="1"/>
    <g stroke="#8b6914" stroke-width="0.4" fill="none" opacity="0.7">
      <line x1="-108" y1="-32" x2="-14" y2="-32"/>
      <line x1="-108" y1="-24" x2="-14" y2="-24"/>
      <line x1="-108" y1="-16" x2="-14" y2="-16"/>
      <line x1="14" y1="-32" x2="108" y2="-32"/>
      <line x1="14" y1="-24" x2="108" y2="-24"/>
      <line x1="14" y1="-16" x2="108" y2="-16"/>
    </g>
  </g>
  <g transform="translate(300 100)" fill="none" stroke="#d4af37" stroke-width="1.4">
    <path d="M -90 15 q 30 -45 90 -20 q 50 20 70 -10" opacity="0.9"/>
    <path d="M -90 15 q 30 -32 80 -16" opacity="0.4"/>
  </g>
  <g transform="translate(230 275)">
    <circle cx="0" cy="0" r="8" fill="none" stroke="#d4af37" stroke-width="1.6"/>
    <circle cx="0" cy="0" r="3" fill="#0b0a1a"/>
    <rect x="7" y="-1.5" width="22" height="3" fill="#d4af37"/>
    <rect x="22" y="2" width="3" height="4" fill="#d4af37"/>
    <rect x="27" y="2" width="3" height="6" fill="#d4af37"/>
  </g>
  <g transform="translate(300 278)" fill="#c94a4a" stroke="#6b1f1f" stroke-width="0.5">
    <path d="M 0 6 q -14 -10 -14 -20 q 0 -8 7 -8 q 5 0 7 6 q 2 -6 7 -6 q 7 0 7 8 q 0 10 -14 20 z"/>
  </g>
  <g transform="translate(370 278)">
    <g fill="#c94a4a" stroke="#6b1f1f" stroke-width="0.5">
      <circle cx="0" cy="0" r="8"/>
      <path d="M -6 -2 q 4 -6 12 0 q 2 4 -4 4 q -6 0 -8 -4 z" opacity="0.7"/>
      <path d="M 6 -2 q -4 -6 -12 0 q -2 4 4 4 q 6 0 8 -4 z" opacity="0.7"/>
      <circle cx="0" cy="-1" r="3" fill="#8b2a2a" stroke="none"/>
    </g>
    <path d="M 0 8 q 0 10 -4 20" fill="none" stroke="#4a6b5f" stroke-width="1.2"/>
    <path d="M -2 14 q -6 0 -10 -4" fill="#4a6b5f" opacity="0.8"/>
  </g>
  <text x="300" y="220" text-anchor="middle" font-family="Georgia, serif" font-size="30" font-style="italic" fill="#5b3a1a">Ende</text>
  <rect x="30" y="30" width="540" height="300" fill="none" stroke="#d4af37" stroke-width="1.5"/>
  <g fill="#d4af37">
    <path d="M 30 30 l 16 0 l 0 3 l -13 0 l 0 13 l -3 0 z"/>
    <path d="M 570 30 l -16 0 l 0 3 l 13 0 l 0 13 l 3 0 z"/>
    <path d="M 30 330 l 16 0 l 0 -3 l -13 0 l 0 -13 l -3 0 z"/>
    <path d="M 570 330 l -16 0 l 0 -3 l 13 0 l 0 -13 l 3 0 z"/>
  </g>
</svg>
