<svg xmlns="http://www.w3.org/2000/svg" viewBox="0 0 400 600" role="img" aria-labelledby="t d">
  <title id="t">Aschenputtel</title>
  <desc id="d">Cover illustration: golden slipper on midnight blue with stars.</desc>
  <defs>
    <linearGradient id="bg" x1="0" y1="0" x2="0" y2="1">
      <stop offset="0" stop-color="#1a2855"/>
      <stop offset="1" stop-color="#0b1428"/>
    </linearGradient>
  </defs>
  <rect width="400" height="600" fill="url(#bg)"/>
  <rect x="16" y="16" width="368" height="568" fill="none" stroke="#d4af37" stroke-width="2"/>
  <g fill="#f4e4b2" opacity="0.8">
    <circle cx="70" cy="90" r="1.5"/>
    <circle cx="140" cy="50" r="1"/>
    <circle cx="320" cy="110" r="1.5"/>
    <circle cx="350" cy="60" r="1"/>
    <circle cx="60" cy="200" r="1"/>
    <circle cx="330" cy="230" r="1"/>
  </g>
  <g transform="translate(200 340)">
    <path d="M -70 0 q 10 -30 45 -30 q 25 0 35 10 q 15 5 30 20 q 5 15 -10 20 l -90 10 q -15 0 -15 -15 z" fill="#d4af37" stroke="#8b6914" stroke-width="1.5"/>
    <path d="M -25 -28 q 5 -12 20 -12 q 12 0 14 10" fill="none" stroke="#8b6914" stroke-width="1.2"/>
  </g>
  <text x="200" y="170" text-anchor="middle" font-family="Georgia, serif" font-size="38" fill="#f4e4b2" font-style="italic">Aschenputtel</text>
  <text x="200" y="210" text-anchor="middle" font-family="Georgia, serif" font-size="14" fill="#b8a66b" letter-spacing="4">KHM 21</text>
  <text x="200" y="530" text-anchor="middle" font-family="Georgia, serif" font-size="13" fill="#b8a66b">Brüder Grimm · 1812</text>
</svg>
